<?xml version="1.0" encoding="utf-8"?>
<!-- Generator: Adobe Illustrator 26.3.1, SVG Export Plug-In . SVG Version: 6.00 Build 0)  -->
<svg version="1.1" id="Layer_1" xmlns="http://www.w3.org/2000/svg" xmlns:xlink="http://www.w3.org/1999/xlink" x="0px" y="0px"
	 viewBox="0 0 486.78 70.87" style="enable-background:new 0 0 486.78 70.87;" xml:space="preserve">
<style type="text/css">
	.Arched_x0020_Green{fill:url(#SVGID_1_);stroke:#FFFFFF;stroke-width:0.25;stroke-miterlimit:1;}
</style>
<linearGradient id="SVGID_1_" gradientUnits="userSpaceOnUse" x1="-56.7586" y1="70.8701" x2="-56.0515" y2="70.163">
	<stop  offset="0" style="stop-color:#20AC4B"/>
	<stop  offset="0.9831" style="stop-color:#19361A"/>
</linearGradient>
<g>
	<g>
		<path d="M37.54,5.47h16v3.28H37.27c-6.4,0-12.05,1.96-16.95,5.88c-2.71,2.46-4.35,4.28-4.92,5.47c-2.21,2.89-3.62,6.31-4.24,10.25
			l-0.55,3.14h29.53v3.01H10.61v27.75H7.33V39.51c0-6.27,0.46-10.6,1.37-12.99c0-1.03,1.14-3.53,3.42-7.52
			C18.4,9.98,26.88,5.47,37.54,5.47z"/>
		<path d="M12.61,66.26H5.33V39.51c0-6.33,0.45-10.72,1.39-13.4c0.12-1.13,0.8-3.1,3.66-8.1l0.1-0.15
			C17.13,8.31,26.23,3.47,37.54,3.47h18v7.28H37.27c-5.89,0-11.15,1.82-15.66,5.4c-3.25,2.95-4.16,4.28-4.42,4.81l-0.21,0.35
			c-2,2.61-3.29,5.76-3.85,9.35l-0.15,0.84h29.15v7.01H12.61V66.26z"/>
	</g>
	<g>
		<path d="M100.88,6.02c4.69,0,9.11,1.18,13.26,3.55c3.96,2.67,6.65,5.67,8.07,9.02c0.82,1.46,1.5,3.83,2.05,7.11l0.14,2.6v13.54
			c0,6.38-2.19,11.76-6.56,16.13c-4.49,4.19-10.09,6.29-16.82,6.29h-1.23c-4.06,0-8.39-1.5-12.99-4.51
			c-5.74-4.65-8.61-11.07-8.61-19.28V29.94c0-4.97,1.14-9.48,3.42-13.54c2.85-4.4,6.86-7.45,12.03-9.16
			C96.39,6.45,98.8,6.04,100.88,6.02z M81.46,29.81V40.2c0,10.05,4.69,16.66,14.08,19.82c2.55,0.46,4.33,0.68,5.33,0.68h1.09
			c3.74,0,7.52-1.18,11.35-3.55c2.1-1.46,3.69-3.1,4.79-4.92c1.5-1.89,2.6-4.99,3.28-9.3V29.4c-0.09-6.22-2.73-11.51-7.93-15.86
			c-3.92-2.46-7.34-3.69-10.25-3.69l-1.78-0.27c-2.21,0-4.81,0.46-7.79,1.37c-4.69,1.78-8.16,4.97-10.39,9.57
			C82.05,23.54,81.46,26.64,81.46,29.81z"/>
		<path d="M101.01,66.26h-1.23c-4.43,0-9.17-1.63-14.08-4.84l-0.16-0.12c-6.21-5.03-9.35-12.03-9.35-20.83V29.94
			c0-5.29,1.24-10.18,3.67-14.51l0.06-0.11C83.01,10.55,87.41,7.2,93,5.35c2.99-0.87,5.61-1.31,7.85-1.33
			c5.05,0,9.84,1.28,14.28,3.82l0.12,0.08c4.23,2.85,7.18,6.15,8.75,9.8c0.92,1.68,1.64,4.19,2.22,7.66l0.02,0.22l0.14,2.7v13.54
			c0,6.9-2.4,12.8-7.15,17.55C114.34,63.96,108.23,66.26,101.01,66.26z M96.04,58.08c2.91,0.52,4.24,0.63,4.83,0.63h1.09
			c3.33,0,6.78-1.09,10.25-3.23c1.83-1.28,3.23-2.72,4.17-4.28l0.15-0.22c1.26-1.59,2.22-4.35,2.85-8.21V29.4
			c-0.08-5.59-2.41-10.26-7.11-14.24c-3.53-2.2-6.58-3.31-9.07-3.31l-0.3-0.02l-1.62-0.25c-1.96,0.02-4.31,0.44-7,1.26
			c-4.18,1.6-7.19,4.37-9.2,8.48c-1.07,2.76-1.61,5.62-1.61,8.49V40.2C83.46,49.32,87.58,55.17,96.04,58.08z"/>
	</g>
	<g>
		<path d="M195.11,19.14v3.96c-0.52,3.21-1.48,5.77-2.87,7.66c-3.1,3.92-7.2,5.88-12.3,5.88l15.04,26.25l-2.73,1.37
			c-10.3-18.05-15.63-27.25-16-27.62h-24.06v27.62h-3.14V5.47h31.72c3.01,0,5.97,1.05,8.89,3.14c1.78,1.5,3.1,3.19,3.96,5.06
			C194.61,16,195.11,17.82,195.11,19.14z M152.18,8.48V33.5h26.39c5.08,0,8.59-1.32,10.53-3.96c2.1-2.44,3.14-5.26,3.14-8.48
			c0-3.99-1.46-7.31-4.38-9.98c-2.58-1.73-4.99-2.6-7.25-2.6H152.18z"/>
		<path d="M191.44,66.9l-0.94-1.64c-10.52-18.44-14.16-24.66-15.34-26.61h-20.98v27.62h-7.14V3.47h33.72c3.42,0,6.8,1.18,10.05,3.52
			l0.12,0.1c1.99,1.69,3.5,3.62,4.49,5.74c1.14,2.65,1.69,4.7,1.69,6.31l-0.03,4.29c-0.57,3.51-1.66,6.38-3.23,8.52
			c-2.82,3.57-6.38,5.72-10.62,6.43l14.53,25.36L191.44,66.9z M154.18,31.5h24.39c4.38,0,7.38-1.06,8.91-3.15l0.1-0.12
			c1.79-2.08,2.66-4.43,2.66-7.17c0-3.38-1.18-6.13-3.62-8.4c-2.18-1.44-4.2-2.17-6-2.17h-26.44V31.5z"/>
	</g>
	<path d="M267.96,66.26H248.6c-8.6,0-16.4-3.61-23.19-10.74l-0.12-0.15c-2.43-3.1-4.19-5.98-5.21-8.56
		c-1.56-4.56-2.33-8.55-2.33-11.95c0-4.27,1.16-9.05,3.45-14.21l0.08-0.15c3.59-6.53,8.78-11.38,15.42-14.39
		c4.23-1.76,8.67-2.64,13.27-2.64h18v7.28h-18.41c-8.22,0-14.79,3.39-20.11,10.38c-2.93,4.34-4.41,9.06-4.41,14.01
		c0,6.74,2.73,12.69,8.35,18.19c3.32,2.66,6.26,4.25,8.76,4.73l0.26,0.05l0.24,0.12c0.96,0.47,3.16,1.03,8.15,1.03h17.18V66.26z"/>
	<path d="M338.85,66.26h-7.14V38.78h-35.79v27.48h-7.32l0.04-36.59c0-7.69,2.45-14.05,7.28-18.91c2.97-3.09,7.44-5.3,13.25-6.52
		c0.52-0.19,1.66-0.37,6.16-0.49l0.1,0l0.11,0.01c4.37,0.34,8.53,1.68,12.36,3.97c7.29,4.84,10.95,11.75,10.95,20.58V66.26z
		 M295.79,31.77h35.92v-3.74c0-4.61-1.79-8.77-5.47-12.71c-3.9-2.77-7.92-4.21-11.96-4.3c-5.97,0-10.57,1.97-14.05,6.01
		c-2.99,3.46-4.44,7.64-4.44,12.78V31.77z"/>
	<path d="M393.63,66.26H359.5v-6.87h29.48c5.44,0,7.05-0.58,7.48-0.83l0.12-0.06c3.84-1.86,5.71-5.16,5.71-10.09
		c0-1.46-0.6-3.38-1.8-5.72c-1.1-1.79-2.88-3.08-5.43-3.95l-2.28-0.36h-18.16c-3.65,0-7.21-1.77-10.6-5.26l-0.16-0.18
		c-2.72-3.58-4.1-7.34-4.1-11.19v-0.68c0-5.83,2.37-10.68,7.04-14.41l0.21-0.15c3.17-1.91,6.65-2.88,10.33-2.88h32.21v7.01h-29.75
		c-5.07,0-6.92,0.67-7.57,1.07c-3.62,1.99-5.34,5.08-5.34,9.51c0,4.13,1.85,7.2,5.67,9.38c1.48,0.52,2.72,0.78,3.68,0.78h18.73
		c2.28,0,4.93,1.05,8.1,3.22l0.21,0.17c4.07,3.69,6.13,8.42,6.13,14.06c0,6.83-2.95,12.06-8.77,15.53l-0.17,0.09
		C397.9,65.66,395.65,66.26,393.63,66.26z"/>
	<g>
		<path d="M478.42,8.62h-21.46v55.64h-3.14V8.62h-21.6V5.47h46.21V8.62z"/>
		<polygon points="458.96,66.26 451.82,66.26 451.82,10.62 430.21,10.62 430.21,3.47 480.42,3.47 480.42,10.62 458.96,10.62 		"/>
	</g>
</g>
</svg>
